<svg width="150" height="100" viewBox="0 0 97 22" fill="none" xmlns="http://www.w3.org/2000/svg">
<path fill-rule="evenodd" clip-rule="evenodd" d="M43.795 6.46428H45.8633V17.791H45.7046C45.0264 17.791 44.3482 17.791 43.67 17.791C43.6192 17.795 43.5684 17.7825 43.5234 17.755C43.4784 17.7274 43.4408 17.6858 43.415 17.6349L38.9177 10.1711C38.8759 10.095 38.822 10.0288 38.759 9.97601V17.7799H36.6907V6.46428H36.859H38.8937C38.9426 6.46057 38.9914 6.47268 39.0347 6.49925C39.078 6.52583 39.1141 6.56582 39.139 6.61478L43.6363 13.9727C43.6776 14.0492 43.7316 14.1155 43.795 14.1678V6.46428Z" fill="white"/>
<path fill-rule="evenodd" clip-rule="evenodd" d="M32.1045 6.46362H34.3977V17.7917H32.1045V6.46362Z" fill="white"/>
<path d="M52.4329 12.6011C52.1417 12.2516 51.782 11.9974 51.3876 11.8625C51.3387 11.8625 51.2898 11.8139 51.2053 11.7762C51.2483 11.7505 51.2929 11.7289 51.3387 11.7115C51.6227 11.6498 51.8856 11.4886 52.0949 11.2478C52.2078 11.1311 52.2979 10.9854 52.3587 10.8213C52.4195 10.6572 52.4494 10.4787 52.4462 10.2989C52.4462 9.75971 52.4462 9.19358 52.4462 8.63823C52.4561 8.24875 52.3642 7.86544 52.1837 7.54302C52.0032 7.22059 51.7432 6.97553 51.441 6.84279C51.2066 6.73294 50.9637 6.65166 50.716 6.60016C50.0102 6.46381 49.2935 6.42942 48.581 6.49772C48.126 6.51433 47.6759 6.61618 47.2466 6.79966C46.9256 6.92744 46.6474 7.17764 46.4534 7.5129C46.2594 7.84815 46.16 8.25047 46.1702 8.6598C46.1702 9.19897 46.1702 9.7651 46.1702 10.3204C46.1682 10.4826 46.1941 10.6436 46.2461 10.793C46.2982 10.9425 46.3753 11.0771 46.4727 11.1885C46.6808 11.46 46.9524 11.6481 47.251 11.7277L47.3845 11.7762C47.3533 11.8193 47.3489 11.8355 47.3444 11.8355L47.2199 11.884C46.8205 12.0208 46.4573 12.2809 46.1657 12.6389C45.9817 12.8458 45.8729 13.1328 45.8633 13.4369C45.8633 14.2025 45.8633 14.9681 45.8855 15.7283C45.8916 16.0678 45.9789 16.3979 46.1368 16.6783C46.2947 16.9588 46.5165 17.1776 46.7751 17.3081C47.2361 17.5439 47.726 17.686 48.2251 17.7287C48.9351 17.8128 49.6502 17.8128 50.3602 17.7287C50.859 17.6874 51.3488 17.5471 51.8102 17.3135C52.0777 17.1833 52.3078 16.9605 52.4715 16.6728C52.6352 16.3851 52.7255 16.0454 52.7309 15.696C52.7576 14.9789 52.7309 14.2618 52.7309 13.5393C52.7386 13.3663 52.716 13.1933 52.6646 13.0316C52.6133 12.8699 52.5343 12.7232 52.4329 12.6011V12.6011ZM48.2162 8.71371C48.2293 8.57346 48.2798 8.44222 48.3601 8.34001C48.4404 8.2378 48.5461 8.17022 48.661 8.14758C49.0817 8.02152 49.5214 8.02152 49.942 8.14758C50.082 8.18457 50.2064 8.28097 50.2929 8.41938C50.3793 8.5578 50.4221 8.72912 50.4135 8.90242C50.4135 9.3733 50.4135 9.84418 50.4135 10.3151C50.4227 10.5002 50.3737 10.6827 50.2763 10.8258C50.1789 10.9688 50.0404 11.0619 49.8887 11.0861C49.4951 11.197 49.0858 11.197 48.6922 11.0861C48.5466 11.0536 48.4157 10.958 48.3241 10.8171C48.2324 10.6762 48.1862 10.4996 48.194 10.3204C48.194 10.0832 48.194 9.85137 48.194 9.61413C48.1851 9.3068 48.1807 9.00487 48.2118 8.70832L48.2162 8.71371ZM50.6137 15.4641C50.6185 15.5449 50.6098 15.6261 50.588 15.7027C50.5662 15.7792 50.5318 15.8497 50.4869 15.9097C50.442 15.9696 50.3875 16.018 50.3267 16.0517C50.2659 16.0854 50.2001 16.1038 50.1333 16.1057C49.5786 16.2234 49.0112 16.2234 48.4564 16.1057C48.391 16.103 48.3267 16.0844 48.2673 16.051C48.2079 16.0176 48.1546 15.97 48.1106 15.9112C48.0667 15.8524 48.0329 15.7835 48.0113 15.7085C47.9897 15.6336 47.9807 15.5541 47.985 15.4749C47.985 15.1298 47.985 14.7848 47.985 14.4343C47.985 14.1 47.985 13.7657 47.985 13.4315C47.9883 13.2844 48.035 13.1438 48.1166 13.0349C48.1982 12.9261 48.3093 12.8564 48.4297 12.8384C48.7831 12.7711 49.1397 12.7315 49.4973 12.7198C49.7142 12.7192 49.9306 12.7482 50.1422 12.806C50.2802 12.8237 50.4075 12.9042 50.4983 13.0314C50.5892 13.1585 50.6368 13.3227 50.6315 13.4908C50.6315 14.1432 50.627 14.8063 50.6092 15.4587L50.6137 15.4641Z" fill="white"/>
<path d="M20.6383 10.2359V10.2397L20.6202 10.2359L13.7588 6.47492V6.46739L13.7724 6.46362L13.8041 6.47492L20.6383 10.2359Z" fill="#7A2158"/>
<path d="M29.8109 7.45475V16.8713L21.7952 21.5677L13.8522 16.8382L21.6448 12.1229L21.6292 12.1182L13.7951 7.40283L13.7588 7.38867L21.6552 2.6875L29.6294 7.41699L29.8109 7.45475Z" fill="white"/>
<path d="M20.6383 12.1362V12.1418L13.7995 17.7917L13.7588 17.7748V6.46362L13.7724 6.46928L13.8041 6.48625L20.6383 12.1362Z" fill="#BFBFBF"/>
<path d="M6.87939 12.1362L13.7589 6.46362V17.7748L13.7361 17.7917L6.87939 12.1362Z" fill="white"/>
<path d="M6.87939 10.247V10.2395V10.247L13.7589 17.769V17.7841L13.7543 17.7916L13.7316 17.769L6.87939 10.247Z" fill="#7A2158"/>
<path d="M0.0456049 16.8052V7.38395L6.88634 2.6875L13.759 7.41699L6.85897 12.1323L6.84529 12.137L13.7134 16.8524L13.7407 16.8665L6.79513 21.5677L0 16.8382L0.0456049 16.8052Z" fill="#BFBFBF"/>
<path d="M58.625 18H54.5852V4.90909H58.804C60.0739 4.90909 61.1605 5.17116 62.0639 5.69531C62.9673 6.2152 63.6598 6.96307 64.1413 7.93892C64.6229 8.91051 64.8636 10.0739 64.8636 11.429C64.8636 12.7926 64.6207 13.9666 64.1349 14.951C63.6491 15.9311 62.9418 16.6854 62.0128 17.2138C61.0838 17.7379 59.9545 18 58.625 18ZM56.1705 16.5938H58.5227C59.6051 16.5938 60.5021 16.3849 61.2138 15.9673C61.9254 15.5497 62.456 14.9553 62.8054 14.1839C63.1548 13.4126 63.3295 12.4943 63.3295 11.429C63.3295 10.3722 63.157 9.46236 62.8118 8.69957C62.4666 7.93253 61.951 7.34446 61.2649 6.93537C60.5788 6.52202 59.7244 6.31534 58.7017 6.31534H56.1705V16.5938ZM67.5227 18V4.90909H75.4233V6.31534H69.108V10.7386H75.0142V12.1449H69.108V16.5938H75.5256V18H67.5227ZM78.8175 4.90909L82.7038 15.929H82.8572L86.7436 4.90909H88.4055L83.5987 18H81.9624L77.1555 4.90909H78.8175Z" fill="#29ABE2"/>
</svg>
